# Blender v2.93.6 OBJ File: 'ladybug2.blend'
# www.blender.org
mtllib ladybug.mtl
o Cube
v -0.659607 -1.773478 0.109060
v -0.662525 -1.773478 -0.241696
v -0.489007 1.909546 0.028858
v -0.490390 1.909546 -0.292124
v -1.280641 0.272792 0.450269
v -1.280641 -0.272792 0.450269
v -1.218604 -0.818377 0.402861
v -1.078258 -1.363962 0.287912
v -1.218604 0.818377 0.402861
v -1.078258 1.363962 0.287912
v -1.080961 1.363962 -0.303074
v -1.218966 0.818377 -0.312950
v -1.280641 0.272792 -0.317664
v -1.280641 -0.272792 -0.317664
v -1.218966 -0.818377 -0.312950
v -1.080961 -1.363962 -0.303074
v 0.001138 -0.272792 -0.796784
v 0.001138 0.272792 -0.796784
v -0.240175 1.909546 -0.465321
v -0.191984 -1.909547 0.341822
v -0.191984 -1.909547 -0.429659
v -0.240175 1.909546 0.332756
v -0.584145 -1.363962 0.671260
v -0.642323 -0.818377 0.853595
v -0.661479 -0.272792 0.929300
v -0.661479 0.272792 0.929300
v -0.642323 0.818377 0.853595
v -0.584145 1.363962 0.671260
v -0.586320 -1.363962 -0.533389
v -0.669039 -0.818377 -0.595783
v -0.701509 -0.272792 -0.624157
v -0.701509 0.272792 -0.624157
v -0.669039 0.818377 -0.595783
v -0.586320 1.363962 -0.533389
v -0.439399 3.028098 0.030224
v -0.440782 3.029650 -0.292124
v -0.236377 3.077654 -0.412160
v -0.235084 3.077508 0.156640
v -0.630745 2.462108 0.030224
v -0.632128 2.462108 -0.292124
v -0.353566 2.462108 0.334122
v -0.353566 2.462108 -0.465321
v -1.280641 -0.272792 0.450269
v -1.280641 0.272792 0.450269
v -1.080961 1.363962 -0.303074
v -1.218966 0.818377 -0.312950
v -1.078258 -1.363962 0.287912
v -1.218604 -0.818377 0.402861
v -1.218604 0.818377 0.402861
v -1.078258 1.363962 0.287912
v -1.280641 0.272792 -0.317664
v -1.280641 -0.272792 -0.317664
v -1.218966 -0.818377 -0.312950
v -1.080961 -1.363962 -0.303074
v -1.831947 -0.184727 -0.556218
v -1.831947 0.090235 -0.556218
v -1.801969 1.258798 -0.838220
v -1.864195 0.993963 -0.825305
v -1.733668 -1.223240 -0.592573
v -1.776370 -1.006767 -0.538216
v -1.790364 0.994069 -0.555103
v -1.738793 1.259587 -0.615741
v -1.968998 0.090235 -0.823647
v -1.968998 -0.184727 -0.823647
v -1.832377 -1.006869 -0.812666
v -1.782038 -1.222295 -0.818732
v 0.659607 -1.773478 0.109060
v 0.662525 -1.773478 -0.241696
v 0.489007 1.909546 0.028858
v 0.490390 1.909546 -0.292124
v 1.280641 0.272792 0.450269
v 1.280641 -0.272792 0.450269
v 1.218604 -0.818377 0.402861
v 1.078258 -1.363962 0.287912
v 0.000000 -1.909547 -0.455504
v 0.000000 1.909546 0.469001
v 0.000000 1.909546 -0.563494
v 0.000000 -1.909547 0.370015
v 1.218604 0.818377 0.402861
v 1.078258 1.363962 0.287912
v 1.080961 1.363962 -0.303074
v 1.218966 0.818377 -0.312950
v 1.280641 0.272792 -0.317664
v 1.280641 -0.272792 -0.317664
v 1.218966 -0.818377 -0.312950
v 1.080961 -1.363962 -0.303074
v 0.000000 -1.363962 -0.663517
v 0.000000 -0.818377 -0.755140
v -0.001138 -0.272792 -0.796784
v -0.001138 0.272792 -0.796784
v 0.000000 0.818377 -0.755140
v 0.000000 1.363962 -0.663517
v 0.000000 -1.363962 0.836462
v 0.000000 -0.818377 1.051081
v 0.000000 -0.272792 1.142951
v 0.000000 0.272792 1.142951
v 0.000000 0.818377 1.051081
v 0.000000 1.363962 0.836462
v 0.240175 1.909546 -0.465321
v 0.191984 -1.909547 0.341822
v 0.191984 -1.909547 -0.429659
v 0.240175 1.909546 0.332756
v 0.584145 -1.363962 0.671260
v 0.642323 -0.818377 0.853595
v 0.661479 -0.272792 0.929300
v 0.661479 0.272792 0.929300
v 0.642323 0.818377 0.853595
v 0.584145 1.363962 0.671260
v 0.586320 -1.363962 -0.533389
v 0.669039 -0.818377 -0.595783
v 0.701509 -0.272792 -0.624157
v 0.701509 0.272792 -0.624157
v 0.669039 0.818377 -0.595783
v 0.586320 1.363962 -0.533389
v 0.439399 3.028098 0.030224
v 0.440782 3.029650 -0.292124
v 0.236377 3.077654 -0.412160
v 0.235084 3.077508 0.156640
v 0.000000 3.091444 0.215733
v 0.000000 3.091444 -0.485236
v 0.630745 2.462108 0.030224
v 0.632128 2.462108 -0.292124
v 0.353566 2.462108 0.334122
v 0.000000 2.462108 0.470367
v 0.000000 2.462108 -0.563494
v 0.353566 2.462108 -0.465321
v 1.280641 -0.272792 0.450269
v 1.280641 0.272792 0.450269
v 1.080961 1.363962 -0.303074
v 1.218966 0.818377 -0.312950
v 1.078258 -1.363962 0.287912
v 1.218604 -0.818377 0.402861
v 1.218604 0.818377 0.402861
v 1.078258 1.363962 0.287912
v 1.280641 0.272792 -0.317664
v 1.280641 -0.272792 -0.317664
v 1.218966 -0.818377 -0.312950
v 1.080961 -1.363962 -0.303074
v 1.831947 -0.184727 -0.556218
v 1.831947 0.090235 -0.556218
v 1.801969 1.258798 -0.838220
v 1.864195 0.993963 -0.825305
v 1.733668 -1.223240 -0.592573
v 1.776370 -1.006767 -0.538216
v 1.790364 0.994069 -0.555103
v 1.738793 1.259587 -0.615741
v 1.968998 0.090235 -0.823647
v 1.968998 -0.184727 -0.823647
v 1.832377 -1.006869 -0.812666
v 1.782038 -1.222295 -0.818732
vt 0.681354 0.571429
vt 0.750000 0.571429
vt 0.750000 0.607143
vt 0.681355 0.607143
vt 0.681354 0.500000
vt 0.750000 0.500000
vt 0.750000 0.535714
vt 0.681354 0.535714
vt 0.750000 0.642857
vt 0.681354 0.642857
vt 0.318646 0.714286
vt 0.375000 0.714286
vt 0.375000 0.750000
vt 0.318646 0.750000
vt 0.625000 0.714286
vt 0.625000 0.750000
vt 0.375000 0.443646
vt 0.625000 0.443646
vt 0.625000 0.500000
vt 0.375000 0.500000
vt 0.750000 0.678571
vt 0.681355 0.678571
vt 0.625000 0.750000
vt 0.681354 0.750000
vt 0.666540 0.750000
vt 0.625000 0.750000
vt 0.681354 0.714286
vt 0.750000 0.714286
vt 0.750000 0.750000
vt 0.681354 0.750000
vt 0.625000 0.535714
vt 0.375000 0.535714
vt 0.375000 0.678571
vt 0.375000 0.678571
vt 0.375000 0.714286
vt 0.375000 0.571429
vt 0.625000 0.571428
vt 0.625000 0.607143
vt 0.375000 0.607143
vt 0.625000 0.678571
vt 0.625000 0.714286
vt 0.625000 0.678571
vt 0.375000 0.642857
vt 0.625000 0.642857
vt 0.375000 0.571429
vt 0.625000 0.571428
vt 0.318646 0.500000
vt 0.318646 0.535714
vt 0.318646 0.571429
vt 0.318646 0.607143
vt 0.318646 0.642857
vt 0.318646 0.678571
vt 0.250000 0.678571
vt 0.250000 0.714286
vt 0.250000 0.642857
vt 0.250000 0.607143
vt 0.250000 0.571429
vt 0.250000 0.535714
vt 0.250000 0.500000
vt 0.375000 0.750000
vt 0.375000 0.750000
vt 0.375000 0.375000
vt 0.625000 0.375000
vt 0.250000 0.750000
vt 0.375000 0.791352
vt 0.625000 0.791540
vt 0.625000 0.875000
vt 0.375000 0.875000
vt 0.750000 0.750000
vt 0.750000 0.750000
vt 0.250000 0.750000
vt 0.318646 0.750000
vt 0.333648 0.750000
vt 0.250000 0.750000
vt 0.375000 0.535714
vt 0.625000 0.535714
vt 0.625000 0.535714
vt 0.375000 0.535714
vt 0.625000 0.642857
vt 0.375000 0.642857
vt 0.375000 0.642857
vt 0.625000 0.642857
vt 0.625000 0.571428
vt 0.625000 0.607143
vt 0.375000 0.607143
vt 0.375000 0.571429
vt 0.375000 0.607143
vt 0.625000 0.607143
vt 0.375000 0.678571
vt 0.625000 0.678571
vt 0.625000 0.714286
vt 0.375000 0.714286
vt 0.681354 0.571429
vt 0.681355 0.607143
vt 0.681354 0.500000
vt 0.681354 0.535714
vt 0.681354 0.642857
vt 0.318646 0.714286
vt 0.318646 0.750000
vt 0.375000 0.750000
vt 0.375000 0.714286
vt 0.625000 0.750000
vt 0.625000 0.714286
vt 0.375000 0.443646
vt 0.375000 0.500000
vt 0.625000 0.500000
vt 0.625000 0.443646
vt 0.681355 0.678571
vt 0.625000 0.750000
vt 0.625000 0.750000
vt 0.666540 0.750000
vt 0.681354 0.750000
vt 0.681354 0.714286
vt 0.681354 0.750000
vt 0.375000 0.535714
vt 0.625000 0.535714
vt 0.375000 0.714286
vt 0.375000 0.678571
vt 0.375000 0.678571
vt 0.375000 0.571429
vt 0.375000 0.607143
vt 0.625000 0.607143
vt 0.625000 0.571428
vt 0.625000 0.678571
vt 0.625000 0.678571
vt 0.625000 0.714286
vt 0.375000 0.642857
vt 0.625000 0.642857
vt 0.625000 0.571428
vt 0.375000 0.571429
vt 0.318646 0.500000
vt 0.318646 0.535714
vt 0.318646 0.571429
vt 0.318646 0.607143
vt 0.318646 0.642857
vt 0.318646 0.678571
vt 0.250000 0.642857
vt 0.250000 0.607143
vt 0.375000 0.750000
vt 0.375000 0.750000
vt 0.375000 0.791352
vt 0.625000 0.791540
vt 0.333648 0.750000
vt 0.318646 0.750000
vt 0.375000 0.535714
vt 0.375000 0.535714
vt 0.625000 0.535714
vt 0.625000 0.535714
vt 0.625000 0.642857
vt 0.625000 0.642857
vt 0.375000 0.642857
vt 0.375000 0.642857
vt 0.625000 0.571428
vt 0.375000 0.607143
vt 0.625000 0.607143
vt 0.375000 0.571429
vt 0.375000 0.607143
vt 0.625000 0.607143
vt 0.375000 0.678571
vt 0.375000 0.714286
vt 0.625000 0.714286
vt 0.625000 0.678571
vn -0.2973 -0.1500 0.9429
vn -0.1893 -0.6221 0.7597
vn -0.3074 0.0000 0.9516
vn -0.4307 0.4273 -0.7950
vn -0.6786 0.7345 0.0030
vn -0.2786 -0.9604 0.0007
vn -0.2973 0.1500 0.9429
vn -0.2665 -0.3420 0.9011
vn -0.6559 0.2775 0.7020
vn -0.2793 0.5821 0.7637
vn -0.2665 0.3420 0.9011
vn -0.6991 -0.7151 0.0042
vn 0.0000 0.0000 1.0000
vn -0.9936 -0.1127 0.0002
vn -0.9936 0.1127 0.0002
vn -0.4050 -0.4793 -0.7786
vn -0.4361 -0.1470 -0.8878
vn -0.4617 -0.0667 -0.8845
vn -0.4678 0.0000 -0.8839
vn -0.4617 0.0667 -0.8845
vn -0.4361 0.1470 -0.8878
vn -0.2221 0.1528 -0.9630
vn -0.2347 0.0690 -0.9696
vn -0.2386 0.0000 -0.9711
vn -0.2347 -0.0690 -0.9696
vn -0.2221 -0.1528 -0.9630
vn -0.1854 -0.3313 -0.9251
vn -0.5843 0.3106 0.7498
vn -0.4843 0.7009 0.5236
vn -0.9474 0.3199 0.0048
vn -0.5843 -0.3106 0.7498
vn -0.6084 0.1335 0.7823
vn 0.0000 -1.0000 0.0000
vn -0.2593 0.2269 -0.9388
vn -0.6119 0.0000 0.7909
vn -0.4579 -0.6882 0.5628
vn -0.6084 -0.1335 0.7823
vn -0.0587 0.9983 0.0002
vn -0.2319 0.9727 0.0026
vn -0.3036 0.3381 0.8908
vn -0.2793 0.1268 -0.9518
vn -0.5236 0.1740 -0.8340
vn -0.5436 -0.1255 -0.8299
vn -0.3138 -0.0322 -0.9489
vn -0.4167 -0.0450 0.9079
vn -0.9686 -0.2485 0.0042
vn -0.7447 -0.1735 0.6445
vn -0.2160 -0.9763 0.0124
vn -0.3311 0.9426 0.0438
vn -0.7882 -0.3077 0.5330
vn -0.9521 -0.2328 0.1981
vn -0.8899 0.0000 0.4561
vn -0.9361 0.2369 0.2599
vn -0.7894 0.3024 0.5342
vn -0.3027 -0.9528 0.0229
vn -0.8770 0.0000 0.4804
vn -0.3268 0.9449 0.0185
vn 0.5923 0.0000 -0.8057
vn -0.1623 0.9867 0.0122
vn 0.5966 -0.1504 -0.7883
vn -0.1670 -0.9857 0.0221
vn 0.6016 0.1450 -0.7855
vn 0.2973 -0.1500 0.9429
vn 0.1893 -0.6221 0.7597
vn 0.3074 0.0000 0.9516
vn 0.4307 0.4273 -0.7950
vn 0.6786 0.7345 0.0030
vn 0.2786 -0.9604 0.0007
vn 0.2973 0.1500 0.9429
vn 0.2665 -0.3420 0.9011
vn 0.6559 0.2775 0.7020
vn 0.2793 0.5821 0.7637
vn 0.2665 0.3420 0.9011
vn 0.6991 -0.7151 0.0042
vn 0.9936 -0.1127 0.0002
vn 0.9936 0.1127 0.0002
vn 0.4050 -0.4793 -0.7786
vn 0.4361 -0.1470 -0.8878
vn 0.4617 -0.0667 -0.8845
vn 0.4678 0.0000 -0.8839
vn 0.4617 0.0667 -0.8845
vn 0.4361 0.1470 -0.8878
vn 0.2221 0.1528 -0.9630
vn 0.2347 0.0690 -0.9696
vn 0.2386 0.0000 -0.9711
vn 0.2347 -0.0690 -0.9696
vn 0.2221 -0.1528 -0.9630
vn 0.1854 -0.3313 -0.9251
vn 0.5843 0.3106 0.7498
vn 0.4843 0.7009 0.5236
vn 0.9474 0.3199 0.0048
vn 0.5843 -0.3106 0.7498
vn 0.6084 0.1335 0.7823
vn 0.2593 0.2269 -0.9388
vn 0.6119 0.0000 0.7909
vn 0.4579 -0.6882 0.5628
vn 0.6084 -0.1335 0.7823
vn 0.0587 0.9983 0.0002
vn 0.2319 0.9727 0.0026
vn 0.3036 0.3381 0.8908
vn 0.2793 0.1268 -0.9518
vn 0.5236 0.1740 -0.8340
vn 0.5436 -0.1255 -0.8299
vn 0.3138 -0.0322 -0.9489
vn 0.4167 -0.0450 0.9079
vn 0.9686 -0.2485 0.0042
vn 0.7447 -0.1735 0.6445
vn 0.2160 -0.9763 0.0124
vn 0.3311 0.9426 0.0438
vn 0.7882 -0.3077 0.5330
vn 0.9521 -0.2328 0.1981
vn 0.8899 0.0000 0.4561
vn 0.9361 0.2369 0.2599
vn 0.7894 0.3024 0.5342
vn 0.3027 -0.9528 0.0229
vn 0.8770 0.0000 0.4804
vn 0.3268 0.9449 0.0185
vn -0.5923 0.0000 -0.8057
vn 0.1623 0.9867 0.0122
vn -0.5966 -0.1504 -0.7883
vn 0.1670 -0.9857 0.0221
vn -0.6016 0.1450 -0.7855
usemtl Material.002
s off
f 24/1/1 94/2/1 95/3/1 25/4/1
f 20/5/2 78/6/2 93/7/2 23/8/2
f 25/4/3 95/3/3 96/9/3 26/10/3
f 34/11/4 11/12/4 4/13/4 19/14/4
f 11/12/5 10/15/5 3/16/5 4/13/5
f 21/17/6 20/18/6 1/19/6 2/20/6
f 26/10/7 96/9/7 97/21/7 27/22/7
f 23/8/8 93/7/8 94/2/8 24/1/8
f 39/23/9 41/24/9 38/25/9 35/26/9
f 28/27/10 98/28/10 76/29/10 22/30/10
f 27/22/11 97/21/11 98/28/11 28/27/11
f 2/20/12 1/19/12 8/31/12 16/32/12
f 11/12/13 12/33/13 46/34/13 45/35/13
f 15/36/14 7/37/14 6/38/14 14/39/14
f 9/40/13 10/15/13 50/41/13 49/42/13
f 13/43/15 5/44/15 9/40/15 12/33/15
f 7/37/13 15/36/13 53/45/13 48/46/13
f 21/47/16 2/20/16 16/32/16 29/48/16
f 29/48/17 16/32/17 15/36/17 30/49/17
f 30/49/18 15/36/18 14/39/18 31/50/18
f 31/50/19 14/39/19 13/43/19 32/51/19
f 32/51/20 13/43/20 12/33/20 33/52/20
f 33/52/21 12/33/21 11/12/21 34/11/21
f 91/53/22 33/52/22 34/11/22 92/54/22
f 18/55/23 32/51/23 33/52/23 91/53/23
f 17/56/24 31/50/24 32/51/24 18/55/24
f 88/57/25 30/49/25 31/50/25 17/56/25
f 87/58/26 29/48/26 30/49/26 88/57/26
f 75/59/27 21/47/27 29/48/27 87/58/27
f 9/40/28 27/22/28 28/27/28 10/15/28
f 10/15/29 28/27/29 22/30/29 3/16/29
f 40/60/30 39/23/30 35/26/30 36/61/30
f 8/31/31 23/8/31 24/1/31 7/37/31
f 5/44/32 26/10/32 27/22/32 9/40/32
f 75/62/33 78/63/33 20/18/33 21/17/33
f 92/54/34 34/11/34 19/14/34 77/64/34
f 6/38/35 25/4/35 26/10/35 5/44/35
f 1/19/36 20/5/36 23/8/36 8/31/36
f 7/37/37 24/1/37 25/4/37 6/38/37
f 37/65/38 38/66/38 119/67/38 120/68/38
f 36/61/39 35/26/39 38/66/39 37/65/39
f 41/24/40 124/69/40 119/70/40 38/25/40
f 125/71/41 42/72/41 37/73/41 120/74/41
f 42/72/42 40/60/42 36/61/42 37/73/42
f 19/14/43 4/13/43 40/60/43 42/72/43
f 77/64/44 19/14/44 42/72/44 125/71/44
f 22/30/45 76/29/45 124/69/45 41/24/45
f 4/13/46 3/16/46 39/23/46 40/60/46
f 3/16/47 22/30/47 41/24/47 39/23/47
f 54/75/48 47/76/48 59/77/48 66/78/48
f 44/79/49 51/80/49 63/81/49 56/82/49
f 47/76/50 48/46/50 60/83/50 59/77/50
f 15/36/13 16/32/13 54/75/13 53/45/13
f 10/15/13 11/12/13 45/35/13 50/41/13
f 14/39/13 6/38/13 43/84/13 52/85/13
f 8/31/13 7/37/13 48/46/13 47/76/13
f 13/43/13 14/39/13 52/85/13 51/80/13
f 5/44/13 13/43/13 51/80/13 44/79/13
f 16/32/13 8/31/13 47/76/13 54/75/13
f 12/33/13 9/40/13 49/42/13 46/34/13
f 6/38/13 5/44/13 44/79/13 43/84/13
f 66/78/51 59/77/51 60/83/51 65/86/51
f 64/87/52 55/88/52 56/82/52 63/81/52
f 58/89/53 61/90/53 62/91/53 57/92/53
f 49/42/54 50/41/54 62/91/54 61/90/54
f 46/34/55 49/42/55 61/90/55 58/89/55
f 43/84/56 44/79/56 56/82/56 55/88/56
f 48/46/57 53/45/57 65/86/57 60/83/57
f 51/80/58 52/85/58 64/87/58 63/81/58
f 50/41/59 45/35/59 57/92/59 62/91/59
f 45/35/60 46/34/60 58/89/60 57/92/60
f 52/85/61 43/84/61 55/88/61 64/87/61
f 53/45/62 54/75/62 66/78/62 65/86/62
f 104/93/63 105/94/63 95/3/63 94/2/63
f 100/95/64 103/96/64 93/7/64 78/6/64
f 105/94/65 106/97/65 96/9/65 95/3/65
f 114/98/66 99/99/66 70/100/66 81/101/66
f 81/101/67 70/100/67 69/102/67 80/103/67
f 101/104/68 68/105/68 67/106/68 100/107/68
f 106/97/69 107/108/69 97/21/69 96/9/69
f 103/96/70 104/93/70 94/2/70 93/7/70
f 121/109/71 115/110/71 118/111/71 123/112/71
f 108/113/72 102/114/72 76/29/72 98/28/72
f 107/108/73 108/113/73 98/28/73 97/21/73
f 68/105/74 86/115/74 74/116/74 67/106/74
f 81/101/13 129/117/13 130/118/13 82/119/13
f 85/120/75 84/121/75 72/122/75 73/123/75
f 79/124/13 133/125/13 134/126/13 80/103/13
f 83/127/76 82/119/76 79/124/76 71/128/76
f 73/123/13 132/129/13 137/130/13 85/120/13
f 101/131/77 109/132/77 86/115/77 68/105/77
f 109/132/78 110/133/78 85/120/78 86/115/78
f 110/133/79 111/134/79 84/121/79 85/120/79
f 111/134/80 112/135/80 83/127/80 84/121/80
f 112/135/81 113/136/81 82/119/81 83/127/81
f 113/136/82 114/98/82 81/101/82 82/119/82
f 91/53/83 92/54/83 114/98/83 113/136/83
f 90/137/84 91/53/84 113/136/84 112/135/84
f 89/138/85 90/137/85 112/135/85 111/134/85
f 88/57/86 89/138/86 111/134/86 110/133/86
f 87/58/87 88/57/87 110/133/87 109/132/87
f 75/59/88 87/58/88 109/132/88 101/131/88
f 79/124/89 80/103/89 108/113/89 107/108/89
f 80/103/90 69/102/90 102/114/90 108/113/90
f 122/139/91 116/140/91 115/110/91 121/109/91
f 74/116/92 73/123/92 104/93/92 103/96/92
f 71/128/93 79/124/93 107/108/93 106/97/93
f 75/62/33 101/104/33 100/107/33 78/63/33
f 92/54/94 77/64/94 99/99/94 114/98/94
f 72/122/95 71/128/95 106/97/95 105/94/95
f 67/106/96 74/116/96 103/96/96 100/95/96
f 73/123/97 72/122/97 105/94/97 104/93/97
f 117/141/98 120/68/98 119/67/98 118/142/98
f 116/140/99 117/141/99 118/142/99 115/110/99
f 123/112/100 118/111/100 119/70/100 124/69/100
f 125/71/101 120/74/101 117/143/101 126/144/101
f 126/144/102 117/143/102 116/140/102 122/139/102
f 99/99/103 126/144/103 122/139/103 70/100/103
f 77/64/104 125/71/104 126/144/104 99/99/104
f 102/114/105 123/112/105 124/69/105 76/29/105
f 70/100/106 122/139/106 121/109/106 69/102/106
f 69/102/107 121/109/107 123/112/107 102/114/107
f 138/145/108 150/146/108 143/147/108 131/148/108
f 128/149/109 140/150/109 147/151/109 135/152/109
f 131/148/110 143/147/110 144/153/110 132/129/110
f 85/120/13 137/130/13 138/145/13 86/115/13
f 80/103/13 134/126/13 129/117/13 81/101/13
f 84/121/13 136/154/13 127/155/13 72/122/13
f 74/116/13 131/148/13 132/129/13 73/123/13
f 83/127/13 135/152/13 136/154/13 84/121/13
f 71/128/13 128/149/13 135/152/13 83/127/13
f 86/115/13 138/145/13 131/148/13 74/116/13
f 82/119/13 130/118/13 133/125/13 79/124/13
f 72/122/13 127/155/13 128/149/13 71/128/13
f 150/146/111 149/156/111 144/153/111 143/147/111
f 148/157/112 147/151/112 140/150/112 139/158/112
f 142/159/113 141/160/113 146/161/113 145/162/113
f 133/125/114 145/162/114 146/161/114 134/126/114
f 130/118/115 142/159/115 145/162/115 133/125/115
f 127/155/116 139/158/116 140/150/116 128/149/116
f 132/129/117 144/153/117 149/156/117 137/130/117
f 135/152/118 147/151/118 148/157/118 136/154/118
f 134/126/119 146/161/119 141/160/119 129/117/119
f 129/117/120 141/160/120 142/159/120 130/118/120
f 136/154/121 148/157/121 139/158/121 127/155/121
f 137/130/122 149/156/122 150/146/122 138/145/122
