# Blender v2.93.6 OBJ File: 'spider2.blend'
# www.blender.org
mtllib spider.mtl
o Cube
v -0.271331 -1.687387 0.864359
v -0.271331 -1.687387 0.515512
v -0.390169 0.786475 0.855643
v -0.390169 0.786475 0.547460
v -0.602218 -1.193699 1.059937
v -0.741627 -0.466144 1.121179
v -0.750793 0.060520 0.979455
v -0.534828 0.433126 0.919790
v -0.534828 0.433126 0.409127
v -0.750793 0.060520 0.349461
v -0.741627 -0.466144 0.335302
v -0.602218 -1.193699 0.403631
v -0.434240 1.060841 0.547460
v -0.414765 1.005669 0.855643
v -0.390169 1.523513 0.601745
v -0.390169 1.523513 0.801358
v -0.390169 0.786475 0.547460
v -0.534828 0.433126 0.409127
v -0.554125 0.776031 0.602873
v -0.554125 0.776031 0.785066
v -0.639645 0.567135 0.822989
v -0.639645 0.567135 0.521091
v -0.781710 0.116698 0.906214
v -0.696909 0.382701 0.860421
v -0.696909 0.382701 0.468495
v -0.781710 0.116698 0.422703
v -0.731784 -1.038465 0.901738
v -0.804347 -0.659771 0.933615
v -0.804347 -0.659771 0.524565
v -0.731784 -1.038465 0.560130
v -0.424853 -1.594092 0.798755
v -0.424853 -1.594092 0.599002
v -0.612264 -1.310034 0.534938
v -0.612264 -1.310034 0.910744
v -1.518277 -1.137466 0.889372
v -1.575588 -0.894853 0.850217
v -1.381250 -0.905990 0.570603
v -1.327829 -1.136009 0.609338
v -1.139434 -1.977388 0.780886
v -1.032003 -1.963211 0.646860
v -1.165300 -1.725821 0.603080
v -1.253792 -1.820929 0.781254
v -1.418899 0.046773 0.768444
v -1.383136 0.256837 0.781403
v -1.286169 0.256837 0.562906
v -1.319772 0.046773 0.545080
v -1.016354 0.991341 0.622820
v -1.085518 0.991341 0.791375
v -1.161142 0.784158 0.798750
v -1.072698 0.784158 0.583208
v -1.431074 -2.076926 0.173895
v -1.434303 -2.058256 -0.001474
v -1.474977 -1.989806 0.006457
v -1.499103 -1.945423 0.199348
v -1.725075 -1.209791 0.133715
v -1.757448 -1.036410 0.098137
v -1.748509 -1.102659 -0.004179
v -1.734848 -1.180220 0.001835
v -1.679188 -0.011391 0.240543
v -1.700368 0.201024 0.238264
v -1.691122 0.132431 -0.001764
v -1.682498 0.046148 -0.003001
v -1.657680 1.163652 0.004977
v -1.644125 1.194040 0.179109
v -1.676664 1.095424 0.152633
v -1.679469 1.096746 0.000512
v 0.271331 -1.687387 0.864359
v 0.271331 -1.687387 0.515512
v 0.390169 0.786475 0.855643
v 0.390169 0.786475 0.547460
v 0.602218 -1.193699 1.059937
v 0.741627 -0.466144 1.121179
v 0.750793 0.060520 0.979455
v 0.534828 0.433126 0.919790
v 0.534828 0.433126 0.409127
v 0.750793 0.060520 0.349461
v 0.741627 -0.466144 0.335302
v 0.602218 -1.193699 0.403631
v 0.000000 0.786475 0.451860
v 0.000000 -1.772213 0.943248
v 0.000000 0.786475 0.921996
v 0.000000 -1.772213 0.506471
v 0.000000 0.433126 0.367736
v 0.000000 0.133847 0.308070
v 0.000000 -0.466144 0.293911
v 0.000000 -1.193699 0.362240
v 0.000000 -1.193699 1.238664
v 0.000000 -0.466144 1.299906
v 0.000000 0.080582 1.080379
v 0.000000 0.433126 0.991233
v 0.000000 1.060841 0.378767
v 0.434240 1.060841 0.547460
v 0.414765 1.005669 0.855643
v 0.000000 1.128647 1.031500
v 0.000000 1.622730 0.451860
v 0.390169 1.523513 0.601745
v 0.390169 1.523513 0.801358
v 0.000000 1.622730 0.921996
v 0.000000 0.786475 0.451860
v 0.390169 0.786475 0.547460
v 0.534828 0.433126 0.409127
v 0.000000 0.433126 0.367736
v 0.554125 0.776031 0.602873
v 0.554125 0.776031 0.785066
v 0.639645 0.567135 0.822989
v 0.639645 0.567135 0.521091
v 0.781710 0.116698 0.906214
v 0.696909 0.382701 0.860421
v 0.696909 0.382701 0.468495
v 0.781710 0.116698 0.422703
v 0.731784 -1.038465 0.901738
v 0.804347 -0.659771 0.933615
v 0.804347 -0.659771 0.524565
v 0.731784 -1.038465 0.560130
v 0.424853 -1.594092 0.798755
v 0.424853 -1.594092 0.599002
v 0.612264 -1.310034 0.534938
v 0.612264 -1.310034 0.910744
v 1.518277 -1.137466 0.889372
v 1.575588 -0.894853 0.850217
v 1.381250 -0.905990 0.570603
v 1.327829 -1.136009 0.609338
v 1.139434 -1.977388 0.780886
v 1.032003 -1.963211 0.646860
v 1.165300 -1.725821 0.603080
v 1.253792 -1.820929 0.781254
v 1.418899 0.046773 0.768444
v 1.383136 0.256837 0.781403
v 1.286169 0.256837 0.562906
v 1.319772 0.046773 0.545080
v 1.016354 0.991341 0.622820
v 1.085518 0.991341 0.791375
v 1.161142 0.784158 0.798750
v 1.072698 0.784158 0.583208
v 1.431074 -2.076926 0.173895
v 1.434303 -2.058256 -0.001474
v 1.474977 -1.989806 0.006457
v 1.499103 -1.945423 0.199348
v 1.725075 -1.209791 0.133715
v 1.757448 -1.036410 0.098137
v 1.748509 -1.102659 -0.004179
v 1.734848 -1.180220 0.001835
v 1.679188 -0.011391 0.240543
v 1.700368 0.201024 0.238264
v 1.691122 0.132431 -0.001764
v 1.682498 0.046148 -0.003001
v 1.657680 1.163652 0.004977
v 1.644125 1.194040 0.179109
v 1.676664 1.095424 0.152633
v 1.679469 1.096746 0.000512
vt 0.825000 0.625000
vt 0.875000 0.625000
vt 0.875000 0.750000
vt 0.825000 0.750000
vt 0.875000 0.750000
vt 0.825000 0.750000
vt 0.325000 0.625000
vt 0.375000 0.625000
vt 0.375000 0.750000
vt 0.325000 0.750000
vt 0.625000 0.625000
vt 0.625000 0.750000
vt 0.175000 0.625000
vt 0.175000 0.750000
vt 0.175000 0.750000
vt 0.175000 0.625000
vt 0.225000 0.625000
vt 0.225000 0.750000
vt 0.275000 0.625000
vt 0.275000 0.750000
vt 0.625000 0.800000
vt 0.375000 0.800000
vt 0.375000 0.800000
vt 0.625000 0.800000
vt 0.675000 0.750000
vt 0.725000 0.750000
vt 0.725000 0.750000
vt 0.675000 0.750000
vt 0.375000 0.850000
vt 0.625000 0.850000
vt 0.625000 0.900000
vt 0.375000 0.900000
vt 0.225000 0.750000
vt 0.175000 0.750000
vt 0.675000 0.625000
vt 0.725000 0.625000
vt 0.775000 0.625000
vt 0.775000 0.750000
vt 0.125000 0.625000
vt 0.125000 0.750000
vt 0.125000 0.750000
vt 0.125000 0.625000
vt 0.875000 0.750000
vt 0.875000 0.625000
vt 0.875000 0.625000
vt 0.875000 0.750000
vt 0.375000 1.000000
vt 0.625000 1.000000
vt 0.625000 1.000000
vt 0.375000 1.000000
vt 0.375000 0.000000
vt 0.625000 0.000000
vt 0.625000 0.125000
vt 0.375000 0.125000
vt 0.125000 0.750000
vt 0.125000 0.625000
vt 0.625000 1.000000
vt 0.375000 1.000000
vt 0.125000 0.625000
vt 0.125000 0.750000
vt 0.375000 0.950000
vt 0.375000 1.000000
vt 0.375000 0.950000
vt 0.375000 1.000000
vt 0.375000 0.950000
vt 0.375000 0.950000
vt 0.375000 1.000000
vt 0.625000 1.000000
vt 0.625000 0.950000
vt 0.625000 0.950000
vt 0.625000 0.950000
vt 0.375000 0.950000
vt 0.375000 0.950000
vt 0.625000 0.950000
vt 0.825000 0.750000
vt 0.775000 0.750000
vt 0.625000 0.900000
vt 0.375000 0.900000
vt 0.375000 0.800000
vt 0.625000 0.800000
vt 0.625000 0.800000
vt 0.375000 0.800000
vt 0.375000 0.850000
vt 0.625000 0.850000
vt 0.325000 0.750000
vt 0.275000 0.750000
vt 0.625000 0.750000
vt 0.675000 0.750000
vt 0.657815 0.750000
vt 0.575104 0.750000
vt 0.375000 0.750000
vt 0.325000 0.750000
vt 0.725000 0.750000
vt 0.675000 0.750000
vt 0.675000 0.750000
vt 0.725000 0.750000
vt 0.375000 0.850000
vt 0.625000 0.850000
vt 0.325000 0.750000
vt 0.275000 0.750000
vt 0.675000 0.750000
vt 0.625000 0.750000
vt 0.375000 0.750000
vt 0.393107 0.800000
vt 0.550058 0.800000
vt 0.335366 0.750000
vt 0.375000 0.900000
vt 0.625000 0.900000
vt 0.625000 0.900000
vt 0.375000 0.913385
vt 0.225000 0.750000
vt 0.175000 0.750000
vt 0.825000 0.750000
vt 0.775000 0.750000
vt 0.625000 1.000000
vt 0.375000 0.980646
vt 0.601113 0.987980
vt 0.625000 0.950000
vt 0.875000 0.750000
vt 0.825000 0.750000
vt 0.372340 0.752464
vt 0.625000 0.800000
vt 0.375000 0.784845
vt 0.340155 0.750000
vt 0.000000 0.000000
vt 0.000000 0.000000
vt 0.000000 0.000000
vt 0.000000 0.000000
vt 0.625000 0.850000
vt 0.369246 0.850000
vt 0.291984 0.750000
vt 0.315887 0.750000
vt 0.379612 0.800000
vt 0.625000 0.800000
vt 0.625000 0.950000
vt 0.375000 0.933697
vt 0.825000 0.750000
vt 0.775000 0.750000
vt 0.211615 0.750000
vt 0.191303 0.750000
vt 0.375000 0.964499
vt 0.553820 0.964180
vt 0.862925 0.750000
vt 0.839017 0.750000
vt 0.825000 0.750000
vt 0.875000 0.750000
vt 0.825000 0.750000
vt 0.875000 0.750000
vt 0.325000 0.750000
vt 0.375000 0.750000
vt 0.625000 0.750000
vt 0.175000 0.750000
vt 0.175000 0.750000
vt 0.225000 0.750000
vt 0.275000 0.750000
vt 0.625000 0.800000
vt 0.625000 0.800000
vt 0.375000 0.800000
vt 0.375000 0.800000
vt 0.675000 0.750000
vt 0.675000 0.750000
vt 0.725000 0.750000
vt 0.725000 0.750000
vt 0.375000 0.850000
vt 0.375000 0.900000
vt 0.625000 0.900000
vt 0.625000 0.850000
vt 0.175000 0.750000
vt 0.225000 0.750000
vt 0.775000 0.750000
vt 0.125000 0.750000
vt 0.125000 0.750000
vt 0.875000 0.750000
vt 0.875000 0.750000
vt 0.375000 1.000000
vt 0.375000 1.000000
vt 0.625000 1.000000
vt 0.625000 1.000000
vt 0.375000 0.000000
vt 0.625000 0.000000
vt 0.125000 0.750000
vt 0.375000 1.000000
vt 0.625000 1.000000
vt 0.125000 0.750000
vt 0.375000 0.950000
vt 0.375000 0.950000
vt 0.375000 1.000000
vt 0.000000 0.000000
vt 0.000000 0.000000
vt 0.000000 0.000000
vt 0.000000 0.000000
vt 0.375000 1.000000
vt 0.375000 1.000000
vt 0.375000 0.950000
vt 0.375000 0.950000
vt 0.625000 1.000000
vt 0.625000 0.950000
vt 0.625000 0.950000
vt 0.625000 0.950000
vt 0.625000 0.950000
vt 0.375000 0.950000
vt 0.375000 0.950000
vt 0.775000 0.750000
vt 0.825000 0.750000
vt 0.375000 0.900000
vt 0.625000 0.900000
vt 0.375000 0.800000
vt 0.375000 0.800000
vt 0.625000 0.800000
vt 0.625000 0.800000
vt 0.625000 0.850000
vt 0.375000 0.850000
vt 0.275000 0.750000
vt 0.325000 0.750000
vt 0.625000 0.750000
vt 0.575104 0.750000
vt 0.657815 0.750000
vt 0.675000 0.750000
vt 0.325000 0.750000
vt 0.375000 0.750000
vt 0.725000 0.750000
vt 0.725000 0.750000
vt 0.675000 0.750000
vt 0.675000 0.750000
vt 0.625000 0.850000
vt 0.375000 0.850000
vt 0.275000 0.750000
vt 0.325000 0.750000
vt 0.625000 0.750000
vt 0.675000 0.750000
vt 0.375000 0.750000
vt 0.550058 0.800000
vt 0.393107 0.800000
vt 0.335366 0.750000
vt 0.375000 0.900000
vt 0.375000 0.913385
vt 0.625000 0.900000
vt 0.625000 0.900000
vt 0.175000 0.750000
vt 0.225000 0.750000
vt 0.775000 0.750000
vt 0.825000 0.750000
vt 0.625000 1.000000
vt 0.601113 0.987980
vt 0.375000 0.980646
vt 0.625000 0.950000
vt 0.825000 0.750000
vt 0.875000 0.750000
vt 0.372340 0.752464
vt 0.375000 0.784845
vt 0.625000 0.800000
vt 0.340155 0.750000
vt 0.000000 0.000000
vt 0.000000 0.000000
vt 0.000000 0.000000
vt 0.000000 0.000000
vt 0.369246 0.850000
vt 0.625000 0.850000
vt 0.315887 0.750000
vt 0.291984 0.750000
vt 0.625000 0.800000
vt 0.379612 0.800000
vt 0.375000 0.933697
vt 0.625000 0.950000
vt 0.775000 0.750000
vt 0.825000 0.750000
vt 0.191303 0.750000
vt 0.211615 0.750000
vt 0.375000 0.964499
vt 0.553820 0.964180
vt 0.839017 0.750000
vt 0.862925 0.750000
vn -0.1440 0.2119 0.9666
vn -0.3919 0.3172 0.8636
vn -0.0804 -0.2550 -0.9636
vn -0.2984 -0.9544 0.0000
vn 0.0000 0.0000 1.0000
vn -0.0742 0.1975 -0.9775
vn -0.0566 0.0246 -0.9981
vn -0.0612 -0.0991 -0.9932
vn -0.9963 0.0860 0.0000
vn -0.8459 -0.2036 0.4930
vn -0.9998 -0.0174 0.0000
vn -0.5183 0.3713 -0.7704
vn -0.2913 -0.4712 0.8326
vn -0.2556 -0.1054 0.9610
vn -0.1790 0.3124 0.9329
vn -0.1327 0.2370 0.9624
vn -0.3018 -0.1497 -0.9415
vn -0.3792 0.1568 0.9119
vn -0.9903 -0.1378 0.0190
vn -0.2550 -0.1959 0.9469
vn -0.2464 0.9692 0.0000
vn -0.3710 0.1303 -0.9195
vn -0.9965 0.0698 0.0458
vn -0.1386 0.3231 -0.9362
vn 0.0407 0.2670 -0.9628
vn -0.0636 0.9980 0.0000
vn -0.3111 0.4542 -0.8348
vn -0.7877 -0.6161 0.0000
vn -0.1939 0.9805 -0.0308
vn -0.5183 0.3713 0.7704
vn -0.8761 -0.4822 0.0000
vn -0.2971 0.9549 0.0000
vn 0.1417 -0.9891 0.0411
vn -0.7677 -0.6408 0.0000
vn -0.9513 0.3082 -0.0000
vn -0.8448 -0.2082 -0.4929
vn 0.0399 -0.2212 0.9744
vn -0.6366 -0.5472 -0.5435
vn -0.6000 -0.6063 0.5219
vn -0.5193 -0.8546 0.0000
vn 0.9507 0.1569 -0.2673
vn -0.0611 -0.0011 0.9981
vn -0.3316 0.9371 -0.1087
vn -0.0424 -0.1297 -0.9906
vn -0.7439 -0.5099 0.4320
vn 0.4931 -0.8614 0.1221
vn -0.6137 0.7886 0.0374
vn 0.0277 -0.1861 -0.9821
vn 0.2206 -0.9725 -0.0746
vn -0.2161 0.1819 -0.9593
vn 0.1179 -0.9929 0.0165
vn -0.1768 0.1122 0.9778
vn 0.3267 0.9446 -0.0307
vn 0.3982 0.9139 0.0785
vn -0.4152 -0.9069 -0.0710
vn 0.0238 0.0991 0.9948
vn -0.8796 -0.4754 -0.0167
vn 0.2817 -0.9595 -0.0070
vn -0.5155 0.8560 -0.0394
vn 0.7576 0.3677 -0.5393
vn 0.9840 0.1754 -0.0310
vn 0.0538 -0.9727 0.2257
vn -0.8232 -0.0982 0.5591
vn -0.1780 0.9840 -0.0040
vn -0.9950 -0.0993 -0.0099
vn -0.8809 0.0184 0.4730
vn -0.0146 0.9884 -0.1512
vn 0.8244 -0.0331 -0.5650
vn -0.9510 0.3084 0.0202
vn -0.4007 -0.9111 -0.0966
vn -0.7014 0.2054 0.6826
vn 0.6760 -0.0748 -0.7331
vn 0.1440 0.2119 0.9666
vn 0.3919 0.3172 0.8636
vn 0.0804 -0.2550 -0.9636
vn 0.2984 -0.9544 0.0000
vn 0.0742 0.1975 -0.9775
vn 0.0566 0.0246 -0.9981
vn 0.0612 -0.0991 -0.9932
vn 0.9963 0.0860 0.0000
vn 0.8459 -0.2036 0.4930
vn 0.9998 -0.0174 0.0000
vn 0.5183 0.3713 -0.7704
vn 0.2913 -0.4712 0.8326
vn 0.2556 -0.1054 0.9610
vn 0.1790 0.3124 0.9329
vn 0.1327 0.2370 0.9624
vn 0.3018 -0.1497 -0.9415
vn 0.3792 0.1568 0.9119
vn 0.9903 -0.1378 0.0190
vn 0.2550 -0.1959 0.9469
vn 0.2464 0.9692 0.0000
vn 0.3710 0.1303 -0.9195
vn 0.9965 0.0698 0.0458
vn 0.1386 0.3231 -0.9362
vn -0.0407 0.2670 -0.9628
vn 0.0636 0.9980 0.0000
vn 0.3111 0.4542 -0.8348
vn 0.7877 -0.6161 0.0000
vn 0.1939 0.9805 -0.0308
vn 0.5183 0.3713 0.7704
vn 0.8761 -0.4822 0.0000
vn 0.2971 0.9549 0.0000
vn -0.1417 -0.9891 0.0411
vn 0.7677 -0.6408 0.0000
vn 0.9513 0.3082 -0.0000
vn 0.8448 -0.2082 -0.4929
vn -0.0399 -0.2212 0.9744
vn 0.6366 -0.5472 -0.5435
vn 0.6000 -0.6063 0.5219
vn 0.5193 -0.8546 0.0000
vn -0.9507 0.1569 -0.2673
vn 0.0611 -0.0011 0.9981
vn 0.3316 0.9371 -0.1087
vn 0.0424 -0.1297 -0.9906
vn 0.7439 -0.5099 0.4320
vn -0.4931 -0.8614 0.1221
vn 0.6137 0.7886 0.0374
vn -0.0277 -0.1861 -0.9821
vn -0.2206 -0.9725 -0.0746
vn 0.2161 0.1819 -0.9593
vn -0.1179 -0.9929 0.0165
vn 0.1768 0.1122 0.9778
vn -0.3267 0.9446 -0.0307
vn -0.3982 0.9139 0.0785
vn 0.4152 -0.9069 -0.0710
vn -0.0238 0.0991 0.9948
vn 0.8796 -0.4754 -0.0167
vn -0.2817 -0.9595 -0.0070
vn 0.5155 0.8560 -0.0394
vn -0.7576 0.3677 -0.5393
vn -0.9840 0.1754 -0.0310
vn -0.0538 -0.9727 0.2257
vn 0.8232 -0.0982 0.5591
vn 0.1780 0.9840 -0.0040
vn 0.9950 -0.0993 -0.0099
vn 0.8809 0.0184 0.4730
vn 0.0146 0.9884 -0.1512
vn -0.8244 -0.0331 -0.5650
vn 0.9510 0.3084 0.0202
vn 0.4007 -0.9111 -0.0966
vn 0.7014 0.2054 0.6826
vn -0.6760 -0.0748 -0.7331
usemtl Material.001
s off
f 90/1/1 81/2/1 3/3/1 8/4/1
f 8/4/2 3/3/2 20/5/2 21/6/2
f 86/7/3 82/8/3 2/9/3 12/10/3
f 82/8/4 80/11/4 1/12/4 2/9/4
f 83/13/5 9/14/5 18/15/5 102/16/5
f 83/13/6 84/17/6 10/18/6 9/14/6
f 84/17/7 85/19/7 11/20/7 10/18/7
f 85/19/8 86/7/8 12/10/8 11/20/8
f 5/21/9 12/22/9 33/23/9 34/24/9
f 5/25/10 6/26/10 28/27/10 27/28/10
f 11/29/11 6/30/11 7/31/11 10/32/11
f 9/14/12 10/18/12 26/33/12 25/34/12
f 80/11/13 87/35/13 5/25/13 1/12/13
f 87/35/14 88/36/14 6/26/14 5/25/14
f 88/36/15 89/37/15 7/38/15 6/26/15
f 89/37/16 90/1/16 8/4/16 7/38/16
f 79/39/17 4/40/17 13/41/17 91/42/17
f 14/43/18 94/44/18 98/45/18 16/46/18
f 4/47/19 3/48/19 14/49/19 13/50/19
f 3/3/20 81/2/20 94/44/20 14/43/20
f 15/51/21 16/52/21 98/53/21 95/54/21
f 91/42/22 13/41/22 15/55/22 95/56/22
f 13/50/23 14/49/23 16/57/23 15/58/23
f 99/59/24 102/16/24 18/15/24 17/60/24
f 9/61/5 4/47/5 17/62/5 18/63/5
f 4/40/5 79/39/5 99/59/5 17/60/5
f 19/64/25 22/65/25 50/66/25 47/67/25
f 3/48/26 4/47/26 19/64/26 20/68/26
f 4/47/27 9/61/27 22/65/27 19/64/27
f 9/61/28 8/69/28 21/70/28 22/65/28
f 24/71/29 25/72/29 45/73/29 44/74/29
f 7/38/30 8/4/30 24/75/30 23/76/30
f 10/32/31 7/31/31 23/77/31 26/78/31
f 8/69/32 9/61/32 25/72/32 24/71/32
f 30/79/33 27/80/33 35/81/33 38/82/33
f 12/22/34 5/21/34 27/80/34 30/79/34
f 6/30/35 11/29/35 29/83/35 28/84/35
f 11/20/36 12/10/36 30/85/36 29/86/36
f 31/87/37 34/88/37 42/89/37 39/90/37
f 12/10/38 2/9/38 32/91/38 33/92/38
f 1/12/39 5/25/39 34/88/39 31/87/39
f 2/9/40 1/12/40 31/87/40 32/91/40
f 36/93/41 35/94/41 55/95/41 56/96/41
f 27/28/42 28/27/42 36/93/42 35/94/42
f 28/84/43 29/83/43 37/97/43 36/98/43
f 29/86/44 30/85/44 38/99/44 37/100/44
f 39/90/45 42/89/45 54/101/45 51/102/45
f 32/91/46 31/87/46 39/90/46 40/103/46
f 34/24/47 33/23/47 41/104/47 42/105/47
f 33/92/48 32/91/48 40/103/48 41/106/48
f 46/107/49 43/108/49 59/109/49 62/110/49
f 25/34/50 26/33/50 46/111/50 45/112/50
f 26/78/51 23/77/51 43/108/51 46/107/51
f 23/76/52 24/75/52 44/113/52 43/114/52
f 48/115/53 47/67/53 63/116/53 64/117/53
f 20/68/54 19/64/54 47/67/54 48/115/54
f 22/65/55 21/70/55 49/118/55 50/66/55
f 21/6/56 20/5/56 48/119/56 49/120/56
f 52/121/57 51/102/57 54/122/57 53/123/57
f 40/103/58 39/90/58 51/102/58 52/121/58
f 42/105/59 41/104/59 53/123/59 54/122/59
f 41/106/60 40/103/60 52/121/60 53/124/60
f 55/125/61 58/126/61 57/127/61 56/128/61
f 37/97/62 36/98/62 56/129/62 57/130/62
f 38/99/63 37/100/63 57/131/63 58/132/63
f 35/81/64 38/82/64 58/133/64 55/134/64
f 62/110/65 59/109/65 60/135/65 61/136/65
f 43/114/66 44/113/66 60/137/66 59/138/66
f 44/74/67 45/73/67 61/136/67 60/135/67
f 45/112/68 46/111/68 62/139/68 61/140/68
f 66/141/69 65/142/69 64/117/69 63/116/69
f 50/66/70 49/118/70 65/142/70 66/141/70
f 49/120/71 48/119/71 64/143/71 65/144/71
f 47/67/72 50/66/72 66/141/72 63/116/72
f 90/1/73 74/145/73 69/146/73 81/2/73
f 74/145/74 105/147/74 104/148/74 69/146/74
f 86/7/75 78/149/75 68/150/75 82/8/75
f 82/8/76 68/150/76 67/151/76 80/11/76
f 83/13/5 102/16/5 101/152/5 75/153/5
f 83/13/77 75/153/77 76/154/77 84/17/77
f 84/17/78 76/154/78 77/155/78 85/19/78
f 85/19/79 77/155/79 78/149/79 86/7/79
f 71/156/80 118/157/80 117/158/80 78/159/80
f 71/160/81 111/161/81 112/162/81 72/163/81
f 77/164/82 76/165/82 73/166/82 72/167/82
f 75/153/83 109/168/83 110/169/83 76/154/83
f 80/11/84 67/151/84 71/160/84 87/35/84
f 87/35/85 71/160/85 72/163/85 88/36/85
f 88/36/86 72/163/86 73/170/86 89/37/86
f 89/37/87 73/170/87 74/145/87 90/1/87
f 79/39/88 91/42/88 92/171/88 70/172/88
f 93/173/89 97/174/89 98/45/89 94/44/89
f 70/175/90 92/176/90 93/177/90 69/178/90
f 69/146/91 93/173/91 94/44/91 81/2/91
f 96/179/92 95/54/92 98/53/92 97/180/92
f 91/42/93 95/56/93 96/181/93 92/171/93
f 92/176/94 96/182/94 97/183/94 93/177/94
f 99/59/95 100/184/95 101/152/95 102/16/95
f 75/185/5 101/186/5 100/187/5 70/175/5
f 79/188/5 99/189/5 102/190/5 83/191/5
f 70/172/5 100/184/5 99/59/5 79/39/5
f 103/192/96 131/193/96 134/194/96 106/195/96
f 69/178/97 104/196/97 103/192/97 70/175/97
f 70/175/98 103/192/98 106/195/98 75/185/98
f 75/185/99 106/195/99 105/197/99 74/198/99
f 108/199/100 128/200/100 129/201/100 109/202/100
f 73/170/101 107/203/101 108/204/101 74/145/101
f 76/165/102 110/205/102 107/206/102 73/166/102
f 74/198/103 108/199/103 109/202/103 75/185/103
f 114/207/104 122/208/104 119/209/104 111/210/104
f 78/159/105 114/207/105 111/210/105 71/156/105
f 72/167/106 112/211/106 113/212/106 77/164/106
f 77/155/107 113/213/107 114/214/107 78/149/107
f 115/215/108 123/216/108 126/217/108 118/218/108
f 78/149/109 117/219/109 116/220/109 68/150/109
f 67/151/110 115/215/110 118/218/110 71/160/110
f 68/150/111 116/220/111 115/215/111 67/151/111
f 120/221/112 140/222/112 139/223/112 119/224/112
f 111/161/113 119/224/113 120/221/113 112/162/113
f 112/211/114 120/225/114 121/226/114 113/212/114
f 113/213/115 121/227/115 122/228/115 114/214/115
f 123/216/116 135/229/116 138/230/116 126/217/116
f 116/220/117 124/231/117 123/216/117 115/215/117
f 118/157/118 126/232/118 125/233/118 117/158/118
f 117/219/119 125/234/119 124/231/119 116/220/119
f 130/235/120 146/236/120 143/237/120 127/238/120
f 109/168/121 129/239/121 130/240/121 110/169/121
f 110/205/122 130/235/122 127/238/122 107/206/122
f 107/203/123 127/241/123 128/242/123 108/204/123
f 132/243/124 148/244/124 147/245/124 131/193/124
f 104/196/125 132/243/125 131/193/125 103/192/125
f 106/195/126 134/194/126 133/246/126 105/197/126
f 105/147/127 133/247/127 132/248/127 104/148/127
f 136/249/128 137/250/128 138/251/128 135/229/128
f 124/231/129 136/249/129 135/229/129 123/216/129
f 126/232/130 138/251/130 137/250/130 125/233/130
f 125/234/131 137/252/131 136/249/131 124/231/131
f 139/253/132 140/254/132 141/255/132 142/256/132
f 121/226/133 141/257/133 140/258/133 120/225/133
f 122/228/134 142/259/134 141/260/134 121/227/134
f 119/209/135 139/261/135 142/262/135 122/208/135
f 146/236/136 145/263/136 144/264/136 143/237/136
f 127/241/137 143/265/137 144/266/137 128/242/137
f 128/200/138 144/264/138 145/263/138 129/201/138
f 129/239/139 145/267/139 146/268/139 130/240/139
f 150/269/140 147/245/140 148/244/140 149/270/140
f 134/194/141 150/269/141 149/270/141 133/246/141
f 133/247/142 149/271/142 148/272/142 132/248/142
f 131/193/143 147/245/143 150/269/143 134/194/143
